<svg xmlns="http://www.w3.org/2000/svg" xmlns:xlink="http://www.w3.org/1999/xlink" width="94.614" height="94.614" viewBox="0 0 94.614 94.614">
  <defs>
    <filter id="Ellipse_69" x="0" y="0" width="94.614" height="94.614" filterUnits="userSpaceOnUse">
      <feOffset input="SourceAlpha"/>
      <feGaussianBlur stdDeviation="5" result="blur"/>
      <feFlood flood-opacity="0.161"/>
      <feComposite operator="in" in2="blur"/>
      <feComposite in="SourceGraphic"/>
    </filter>
  </defs>
  <g id="Group_1012" data-name="Group 1012" transform="translate(-423 -1136.976)">
    <g id="Group_1009" data-name="Group 1009" transform="translate(438 1151.976)">
      <g transform="matrix(1, 0, 0, 1, -15, -15)" filter="url(#Ellipse_69)">
        <circle id="Ellipse_69-2" data-name="Ellipse 69" cx="32.307" cy="32.307" r="32.307" transform="translate(15 15)" fill="#fff"/>
      </g>
    </g>
    <path id="Icon_material-location-on" data-name="Icon material-location-on" d="M17.06,3A9.553,9.553,0,0,0,7.5,12.56c0,7.17,9.56,17.754,9.56,17.754s9.56-10.584,9.56-17.754A9.553,9.553,0,0,0,17.06,3Zm0,12.974a3.414,3.414,0,1,1,3.414-3.414A3.415,3.415,0,0,1,17.06,15.974Z" transform="translate(453.247 1167.626)" fill="#6d4381"/>
  </g>
</svg>
