<svg xmlns="http://www.w3.org/2000/svg" width="32.866" height="21.767" viewBox="0 0 32.866 21.767">
  <g id="Group_89" data-name="Group 89" transform="translate(-345.013 -4870.573)">
    <path id="Path_204" data-name="Path 204" d="M368.839,4886.475a8.141,8.141,0,0,0,3.432,5.865c-.5-.139-.735-.176-.945-.265-5.1-2.169-8.572-5.7-9.386-11.389-.619-4.323,1.687-8.422,5.395-9.692a7.975,7.975,0,1,1,2.134,15.513Z" fill="#c17cd2"/>
    <path id="Path_205" data-name="Path 205" d="M355.355,4892.294c-6.048-1.71-11.983-8.263-9.927-15.764a7.818,7.818,0,0,1,8.52-5.912,7.98,7.98,0,0,1-1.138,15.906c-.252-.009-.505,0-.841,0A8.2,8.2,0,0,0,355.355,4892.294Z" fill="#c17cd2"/>
  </g>
</svg>
