<svg xmlns="http://www.w3.org/2000/svg" width="32.866" height="21.769" viewBox="0 0 32.866 21.769">
  <g id="Group_90" data-name="Group 90" transform="translate(-652.118 -4975.146)">
    <path id="Path_206" data-name="Path 206" d="M661.158,4991.05a8.145,8.145,0,0,1-3.432,5.865c.5-.14.734-.177.944-.266,5.1-2.168,8.572-5.7,9.387-11.388.619-4.323-1.688-8.423-5.4-9.692a7.975,7.975,0,1,0-2.134,15.512Z" fill="#c17cd2"/>
    <path id="Path_207" data-name="Path 207" d="M674.641,4996.869c6.048-1.71,11.983-8.264,9.928-15.764a7.819,7.819,0,0,0-8.52-5.913,7.981,7.981,0,0,0,1.138,15.907c.252-.009.5,0,.84,0A8.188,8.188,0,0,1,674.641,4996.869Z" fill="#c17cd2"/>
  </g>
</svg>
